<?xml version="1.0" encoding="utf-8"?>
<!-- Generator: Adobe Illustrator 16.0.0, SVG Export Plug-In . SVG Version: 6.00 Build 0)  -->
<!DOCTYPE svg PUBLIC "-//W3C//DTD SVG 1.1//EN" "http://www.w3.org/Graphics/SVG/1.1/DTD/svg11.dtd">
<svg version="1.1"
	 id="svg8" xmlns:dc="http://purl.org/dc/elements/1.1/" xmlns:cc="http://creativecommons.org/ns#" xmlns:rdf="http://www.w3.org/1999/02/22-rdf-syntax-ns#" xmlns:svg="http://www.w3.org/2000/svg" xmlns:sodipodi="http://sodipodi.sourceforge.net/DTD/sodipodi-0.dtd" xmlns:inkscape="http://www.inkscape.org/namespaces/inkscape" sodipodi:docname="strategy, plan, business plan, stickers, sticker.svg" inkscape:version="1.0.2-2 (e86c870879, 2021-01-15)"
	 xmlns="http://www.w3.org/2000/svg" xmlns:xlink="http://www.w3.org/1999/xlink" x="0px" y="0px" width="512px" height="512px"
	 viewBox="0 0 512 512" enable-background="new 0 0 512 512" xml:space="preserve">
<g id="layer1" inkscape:label="Layer 1" inkscape:groupmode="layer">
	<g id="g8696" transform="translate(-0.02538317,0.51834473)">
		<g id="g8876">
			<path id="path10903" sodipodi:nodetypes="sssssssss" fill="#FFC517" d="M462.536,93.85
				c-91.794-14.991-181.58-18.9-270.459-17.802c-14.612,0.181-25.966,10.125-28.054,24.588
				c-20.531,142.253-19.973,204.573-22.261,338.206c-0.25,14.611,10.14,25.865,24.588,28.054
				c89.65,13.578,179.516,23.867,270.459,17.802c14.581-0.973,26.802-10.029,28.054-24.589
				c11.627-135.271,21.509-196.57,22.261-338.206C487.202,107.291,476.959,96.206,462.536,93.85L462.536,93.85z"/>
			<path id="path11152" fill="#7738C7" d="M326.477,73.531c39.103,2.357,78.521,6.461,118.376,12.969
				c12.523,2.045,21.418,11.671,21.351,24.36c-0.652,122.989-11.184,208.22-21.281,325.684
				c-1.086,12.643-11.698,20.507-24.359,21.351c-54.334,3.624-108.221,0.45-161.912-5.676l-93.493-73.893
				c1.853-96.575,4.802-177.293,20.482-285.934c1.813-12.559,11.671-21.194,24.36-21.351
				C248.588,70.566,287.375,71.175,326.477,73.531z"/>
			<path id="path11125" sodipodi:nodetypes="cssscsssccc" fill="#FF4B3D" d="M379.372,47.225c0,0,17.973,0.966,20.544,13.592
				s8.206,17.312,14.759,19.503s8.382,19.157,1.765,29.16c-6.108,9.232-81.35,7.691-92.982,6.479
				c-11.689-0.21-86.567-7.818-91.509-17.725c-5.354-10.732-1.475-27.351,5.295-28.729c6.77-1.379,12.932-5.346,17.018-17.566
				s22.042-10.996,22.042-10.996l51.535,3.141L379.372,47.225z"/>
			<path id="path11155" fill="#FFAC17" d="M258.65,452.22c0,0-65.751-1.839-75.089-11.384c-9.338-9.544-18.404-62.509-18.404-62.509
				S241.264,422.995,258.65,452.22z"/>
			<path id="path10841" fill="#171D8F" d="M258.65,452.22l-93.493-73.893c24.345,2.778,48.654,6.104,72.94,9.782
				c12.546,1.9,21.568,11.673,21.352,24.36C259.209,426.452,258.904,438.988,258.65,452.22z"/>
			<path id="path11177" fill="#CF1531" d="M283.06,79.621c4.553-0.534,19.975,2.4,53.14,4.254
				c35.601,1.99,57.245-10.592,65.558-16.549c2.966,7.839,7.643,11.229,12.918,12.992c5.145,1.72,7.354,12.542,4.874,21.956
				c-11.589-10.222-23.184-6.99-47.637-5.609c-26.368,1.489-87.468-10.715-90.038-15.185
				C281.231,80.363,281.541,79.799,283.06,79.621L283.06,79.621z"/>
			<path id="path11967-04" fill="#FF4B3D" d="M403.118,244.399c0.239-0.033,0.494-0.036,0.758-0.011
				c0.702,0.068,1.476,0.344,2.222,0.846c1.121,0.755,6.624,5.703,12.434,11.709c7.301-4.065,14.004-7.204,15.297-7.602
				c0.86-0.265,1.68-0.305,2.372-0.166c2.077,0.418,3.018,2.453,0.539,4.89c0,0-5.462,4.575-11.915,9.746
				c6.329,7.353,11.108,14.626,8.071,17.077c-0.29,0.234-0.583,0.433-0.874,0.615c-1.077,0.984-2.572,1.389-4.176,0.981h-0.002
				c-1.032-0.174-1.939-0.669-2.629-1.405c-0.26-0.215-0.52-0.443-0.774-0.706c-1.857-1.915-4.779-5.774-7.884-10.086
				c-4.221,3.228-8.136,6.071-10.469,7.367c-0.32,0.178-0.634,0.323-0.944,0.453c-0.873,0.505-1.887,0.715-2.925,0.582h-0.002
				c-1.652-0.074-2.966-0.896-3.711-2.149c-0.227-0.26-0.449-0.533-0.659-0.843c-2.195-3.226,4.484-8.803,12.672-14.005
				c-4.677-6.819-8.578-12.779-8.578-12.779C400.482,246.244,401.442,244.627,403.118,244.399L403.118,244.399z"/>
			<path id="path8394" fill="#FF4B3D" d="M221.32,285.761c0.239-0.033,0.494-0.036,0.757-0.012c0.703,0.068,1.476,0.344,2.222,0.846
				c1.122,0.756,6.624,5.703,12.433,11.709c7.302-4.064,14.005-7.204,15.297-7.602c0.86-0.266,1.68-0.305,2.372-0.166
				c2.078,0.418,3.018,2.453,0.54,4.891c0,0-5.462,4.574-11.915,9.746c6.329,7.352,11.108,14.626,8.071,17.076
				c-0.291,0.235-0.583,0.434-0.874,0.615c-1.077,0.985-2.572,1.389-4.175,0.981l-0.002,0.001c-1.033-0.174-1.94-0.669-2.629-1.405
				c-0.26-0.215-0.519-0.444-0.774-0.707c-1.857-1.915-4.779-5.773-7.884-10.085c-4.221,3.227-8.136,6.071-10.469,7.366
				c-0.32,0.179-0.634,0.323-0.945,0.453c-0.873,0.505-1.886,0.716-2.925,0.583h-0.002c-1.652-0.075-2.965-0.896-3.711-2.15
				c-0.226-0.26-0.448-0.533-0.659-0.842c-2.196-3.227,4.485-8.804,12.672-14.006c-4.677-6.818-8.579-12.779-8.579-12.779
				C218.685,287.606,219.645,285.987,221.32,285.761L221.32,285.761z"/>
			<path id="path8396" fill="#FFFFFF" d="M325.812,431.867c0,0,123.237-41.589,90.687-104.167s-147.354-67.728-165.692-110.118
				c-18.338-42.391,24.8-54.046,24.8-54.046s1.676,12.339,4.815,13.988s18.69-19.263,21.388-26.773
				c2.697-7.511-31.09-17.58-33.225-13.336s1.178,9.483,1.178,9.483s-42.968,8.555-44.629,56.156
				c-1.662,47.602,67.967,73.041,118.608,92.916s62.734,46.652,61.516,66.151s-36.094,50.216-66.293,60.074
				C308.765,432.055,319.541,433.825,325.812,431.867L325.812,431.867z"/>
			<path id="path8398" fill="#FFFFFF" d="M353.007,320.341c10.05-0.485,18.675,7.346,19.16,17.395s-7.346,18.675-17.396,19.16
				c-10.049,0.484-18.675-7.346-19.159-17.395C335.127,329.451,342.958,320.825,353.007,320.341L353.007,320.341z M353.374,327.943
				c-5.941,0.287-10.447,5.25-10.16,11.191c0.287,5.94,5.25,10.446,11.19,10.16c5.941-0.287,10.447-5.25,10.16-11.191
				C364.278,332.161,359.314,327.655,353.374,327.943L353.374,327.943z"/>
			<path id="path8404" fill="#FFFFFF" d="M322.845,212.335c10.05-0.485,18.675,7.346,19.16,17.395
				c0.485,10.049-7.346,18.674-17.396,19.16c-10.049,0.485-18.674-7.346-19.159-17.395S312.796,212.82,322.845,212.335
				L322.845,212.335z M323.212,219.937c-5.94,0.287-10.446,5.25-10.16,11.19c0.287,5.941,5.25,10.447,11.191,10.16
				c5.94-0.287,10.446-5.25,10.159-11.191C334.116,224.155,329.152,219.65,323.212,219.937L323.212,219.937z"/>
			<path id="path8406" fill="#FFC517" d="M372.586,124.668c-1.076,0.103-2.259,0.525-3.401,1.295
				c-4.323,2.911-24.302,21.917-35.801,35.788c-4.87-4.095-12.393-9.951-16.571-12.077c-4.911-2.5-9.76,0.594-5.63,6.36
				c0,0,6.835,16.293,16.991,24.492c0.445,0.359,0.893,0.662,1.338,0.941c1.648,1.507,3.936,2.126,6.389,1.502
				c0.001,0,0.003,0,0.004,0c1.58-0.266,2.969-1.022,4.023-2.149c0.398-0.329,0.794-0.68,1.185-1.083
				c9.086-9.371,34.434-48.144,34.434-48.144C378.096,126.924,375.813,124.36,372.586,124.668L372.586,124.668z"/>
			<path id="path8410" fill="#FF4B3D" d="M280.697,387.265c0.239-0.03,0.494-0.034,0.758-0.012c0.703,0.068,1.477,0.344,2.223,0.846
				c1.121,0.756,6.623,5.703,12.433,11.709c7.302-4.064,14.005-7.204,15.297-7.602c0.86-0.266,1.68-0.305,2.372-0.166
				c2.078,0.419,3.018,2.453,0.539,4.891c0,0-5.462,4.574-11.915,9.746c6.329,7.352,11.108,14.626,8.072,17.077
				c-0.291,0.234-0.583,0.433-0.874,0.615c-1.077,0.984-2.573,1.389-4.176,0.98h-0.002c-1.033-0.174-1.94-0.668-2.629-1.404
				c-0.261-0.215-0.52-0.443-0.774-0.707c-1.857-1.915-4.78-5.773-7.884-10.085c-4.221,3.227-8.137,6.071-10.469,7.366
				c-0.32,0.178-0.635,0.323-0.945,0.453c-0.873,0.506-1.887,0.716-2.925,0.582l-0.002,0.001c-1.652-0.075-2.966-0.896-3.711-2.15
				c-0.226-0.259-0.448-0.533-0.659-0.842c-2.195-3.227,4.485-8.803,12.673-14.006c-4.677-6.818-8.579-12.779-8.579-12.779
				C278.063,389.11,279.021,387.492,280.697,387.265L280.697,387.265z"/>
			<path id="path8439" fill="#FF4B3D" d="M115.387,26.441c49.96,0,90.462,40.5,90.463,90.461l0,0
				c0,49.961-40.5,90.462-90.461,90.463c-0.001,0-0.001,0-0.002,0c-5.415,0-10.819-0.486-16.146-1.453
				c-1.391,15.186,3.098,37.472,26.246,66.406c5.83,7.288,12.79,11.533,17.939,14.801c5.16,3.275,2.282,10.286-3.611,7.811
				c-15.238-6.4-34.6-17.953-52.885-40.102c-12.765-15.461-18.518-40.838-21.086-62.236c-25.533-16.713-40.918-45.173-40.917-75.689
				C24.926,66.942,65.426,26.441,115.387,26.441z"/>
			<path id="path8450" fill="#CF1531" d="M25.711,128.786c43.098,49.153,115.298,52.108,157.467,48.014
				c-17.171,19.435-41.858,30.564-67.791,30.564c-5.415,0-10.819-0.486-16.146-1.453c-1.391,15.186,3.098,37.472,26.246,66.406
				c5.83,7.288,12.79,11.533,17.939,14.801c5.16,3.275,2.282,10.286-3.611,7.811c-15.238-6.4-34.6-17.953-52.885-40.102
				c-12.765-15.461-18.518-40.838-21.086-62.236C43.82,178.174,29.168,154.881,25.711,128.786z"/>
			<path id="path8445" sodipodi:nodetypes="ccscsssscscsscssscscc" fill="#FFFFFF" d="M108.024,57.523
				c-2.04,0.178-5.144,5.765-5.144,5.765s-6.742-6.83-7.452-3.015c-0.484,2.602,0.178,6.958,0.654,9.953
				c-6.06,3.78-20.327,12.711-24.007,15.525c-4.515,3.453-7.701,6.244-3.066,14.271c3.368,5.833,11.862,2.928,15.414,0.878
				c6.036-3.485,16.25,2.836,18.199,2.836c7.698,0,9.064-2.563,9.064-2.563s0.835,15.517-17.754,25.874
				c-14.376,8.01-16.274,21.621-16.401,27.396c-2.758,0.07-5.048,0.246-5.753,0.658c-2.129,1.242-3.548,6.832-4.347,10.469
				c-0.798,3.637,2.66,4.434,2.66,4.434s85.836,0.355,87.344,0s1.598-5.234,0.799-8.072c-0.798-2.839-7.275-4.967-7.985-5.41
				s1.243-9.936-0.442-23.419s-4.525-32.998-11.622-48.256C131.088,69.587,110.064,57.345,108.024,57.523L108.024,57.523z"/>
		</g>
	</g>
</g>
</svg>
