<?xml version="1.0" encoding="utf-8"?>
<!-- Generator: Adobe Illustrator 16.0.0, SVG Export Plug-In . SVG Version: 6.00 Build 0)  -->
<!DOCTYPE svg PUBLIC "-//W3C//DTD SVG 1.1//EN" "http://www.w3.org/Graphics/SVG/1.1/DTD/svg11.dtd">
<svg version="1.1"
	 id="svg8" xmlns:dc="http://purl.org/dc/elements/1.1/" xmlns:cc="http://creativecommons.org/ns#" xmlns:rdf="http://www.w3.org/1999/02/22-rdf-syntax-ns#" xmlns:svg="http://www.w3.org/2000/svg" xmlns:sodipodi="http://sodipodi.sourceforge.net/DTD/sodipodi-0.dtd" xmlns:inkscape="http://www.inkscape.org/namespaces/inkscape" sodipodi:docname="project management, management, project, manager, stickers, sticker.svg" inkscape:version="1.0.2-2 (e86c870879, 2021-01-15)"
	 xmlns="http://www.w3.org/2000/svg" xmlns:xlink="http://www.w3.org/1999/xlink" x="0px" y="0px" width="512px" height="512px"
	 viewBox="0 0 512 512" enable-background="new 0 0 512 512" xml:space="preserve">
<g id="layer1" inkscape:label="Layer 1" inkscape:groupmode="layer">
	<g id="g8880" transform="translate(-0.03427762,6.4809761e-5)">
		<path id="path8772" fill="#7738C7" d="M164.937,25c-8.569,0-12.783,7.331-15.469,15.469l-7.734,23.441
			c-7.463,2.246-14.682,5.236-21.547,8.926L98.14,61.728c-7.653-3.855-15.815-6.06-21.875,0L61.65,76.344
			c-6.06,6.06-3.855,14.222,0,21.875l11.107,22.045c-3.688,6.865-6.678,14.084-8.924,21.547l-23.443,7.736
			c-8.138,2.686-15.469,6.897-15.469,15.467v20.668c0,8.569,7.331,12.783,15.469,15.469l23.443,7.734
			c2.246,7.464,5.235,14.683,8.924,21.549L61.65,252.478c-3.855,7.652-6.06,15.815,0,21.875l14.615,14.613
			c6.06,6.06,14.222,3.855,21.875,0l22.045-11.105c6.866,3.689,14.085,6.68,21.549,8.926l7.734,23.443
			c2.686,8.138,6.899,15.469,15.469,15.469h20.666c8.569,0,12.783-7.331,15.469-15.469l7.734-23.445
			c7.463-2.246,14.682-5.235,21.547-8.924l22.047,11.105c7.652,3.855,15.815,6.06,21.875,0l14.615-14.613
			c6.06-6.06,3.855-14.223,0-21.875l-11.107-22.045c3.688-6.865,6.678-14.084,8.924-21.547l23.445-7.736
			c8.138-2.686,15.469-6.899,15.469-15.469v-20.668c0-8.569-7.331-12.781-15.469-15.467l-23.445-7.736
			c-2.246-7.462-5.235-14.68-8.924-21.545l11.107-22.047c3.855-7.653,6.06-15.815,0-21.875l-14.615-14.615
			c-6.06-6.06-14.223-3.855-21.875,0l-22.045,11.107c-6.866-3.689-14.085-6.68-21.549-8.926l-7.734-23.441
			C198.386,32.331,194.172,25,185.603,25H164.937z M175.038,128.1c0.078,0,0.155,0,0.232,0c26.095,0,47.25,21.155,47.25,47.25
			s-21.155,47.25-47.25,47.25s-47.25-21.155-47.25-47.25C128.021,149.345,149.034,128.227,175.038,128.1z"/>
		<path id="path8793" fill="#FF4B3D" d="M371.249,230.166c-6.167,0-9.198,5.274-11.131,11.131l-5.566,16.871
			c-5.371,1.616-10.565,3.768-15.506,6.422l-15.867-7.992c-5.508-2.774-11.382-4.361-15.742,0l-10.518,10.518
			c-4.361,4.361-2.774,10.234,0,15.742l7.992,15.865c-2.654,4.941-4.806,10.137-6.422,15.508l-16.871,5.566
			c-5.856,1.933-11.131,4.964-11.131,11.131v14.875c0,6.167,5.274,9.198,11.131,11.131l16.871,5.566
			c1.616,5.371,3.768,10.566,6.422,15.508l-7.992,15.865c-2.774,5.508-4.361,11.381,0,15.742l10.518,10.518
			c4.36,4.36,10.234,2.774,15.742,0l15.865-7.994c4.941,2.656,10.137,4.809,15.508,6.426l5.566,16.869
			c1.933,5.856,4.964,11.133,11.131,11.133h14.875c6.167,0,9.198-5.276,11.131-11.133l5.566-16.871
			c5.371-1.617,10.565-3.769,15.506-6.424l15.867,7.994c5.508,2.774,11.382,4.36,15.742,0l10.518-10.518
			c4.36-4.361,2.774-10.234,0-15.742l-7.994-15.865c2.655-4.94,4.808-10.135,6.424-15.506l16.871-5.568
			c5.856-1.933,11.133-4.964,11.133-11.131v-14.875c0-6.167-5.276-9.198-11.133-11.131l-16.871-5.566
			c-1.616-5.371-3.769-10.565-6.424-15.506l7.994-15.867c2.774-5.508,4.36-11.381,0-15.742l-10.518-10.518
			c-4.36-4.361-10.234-2.774-15.742,0l-15.865,7.992c-4.941-2.654-10.137-4.807-15.508-6.422l-5.566-16.871
			c-1.933-5.856-4.964-11.131-11.131-11.131H371.249z M378.687,304.361c18.779,0,34.004,15.225,34.004,34.004
			c0.001,18.779-15.223,34.005-34.002,34.006c-0.001,0-0.001,0-0.002,0c-18.78,0-34.004-15.225-34.004-34.004
			c0-0.001,0-0.002,0-0.002C344.683,319.586,359.907,304.361,378.687,304.361z"/>
		<path id="path8825" fill="#FFC517" d="M407.905,25c43.849,0.288,79.242,35.915,79.241,79.764
			c-0.001,41.333-31.576,75.818-72.75,79.453c-6.351,8.491-15.735,16.326-28.362,14.982c-19.822-2.109-1.746-4.224,7.09-15.956
			c-37.932-6.892-65.505-39.927-65.505-78.479c0-44.052,35.712-79.764,79.764-79.764C407.557,24.999,407.732,24.999,407.905,25z"/>
		<path id="path8827" fill="#FFC517" d="M150.326,339.623c-40.697,0-73.688,32.992-73.687,73.689l0,0
			c0,40.696,32.991,73.688,73.687,73.688c40.697,0.001,73.689-32.99,73.689-73.687c0-0.001,0-0.001,0-0.001
			c0-3.883-0.308-7.761-0.92-11.596c21.064-12.625,42.216-27.033,39.099-32.432c-2.416-4.186-27.541-0.344-49.636,4.568
			C199.045,352.539,175.563,339.623,150.326,339.623z"/>
		<path id="path8834" sodipodi:nodetypes="cccsccccc" fill="#FFFFFF" d="M397.858,56.141c-25.991,2.255-46.385,24.068-46.385,50.644
			c-0.001,28.077,22.759,50.838,50.836,50.838c26.876-0.001,48.892-20.861,50.712-47.293c0.256-3.714-3.389-3.383-3.389-3.383
			h-39.648c-6.009,0-7.589-3.334-7.589-8.07V60.357C402.395,56.68,399.915,56.068,397.858,56.141L397.858,56.141z"/>
		<path id="path8839" sodipodi:nodetypes="ccccssc" fill="#FF4B3D" d="M417.751,49.505v37.25c0,5.928,1.516,8.585,7.511,8.585h38.08
			c0,0,4.922-0.038,4.922-5.109c0-33.203-32.314-45.084-45.263-45.084C418.425,45.147,417.751,49.505,417.751,49.505z"/>
		<path id="rect8847" sodipodi:nodetypes="sssssss" fill="#FFFFFF" d="M109.694,373.929c6.431,0,11.607,5.177,11.607,11.607v61.071
			c0,6.431-5.177,11.607-11.607,11.607c-6.43,0-11.607-5.177-11.607-11.607v-61.071C98.088,379.105,103.264,373.929,109.694,373.929
			z"/>
		<path id="path8850" sodipodi:nodetypes="sssssss" fill="#FFFFFF" d="M190.409,373.929c6.431,0,11.607,5.177,11.607,11.607v61.071
			c0,6.431-5.177,11.607-11.607,11.607c-6.43,0-11.607-5.177-11.607-11.607v-61.071
			C178.802,379.105,183.979,373.929,190.409,373.929z"/>
		<path id="path8852" sodipodi:nodetypes="sssssss" fill="#FF4B3D" d="M109.694,427.857c6.431,0,11.607,5.177,11.607,11.607v7.143
			c0,6.431-5.177,11.607-11.607,11.607c-6.43,0-11.607-5.177-11.607-11.607v-7.143C98.088,433.034,103.264,427.857,109.694,427.857z
			"/>
		<path id="path8854" sodipodi:nodetypes="sssssss" fill="#FFFFFF" d="M149.337,373.929c6.43,0,11.607,5.177,11.607,11.607v61.071
			c0,6.431-5.177,11.607-11.607,11.607s-11.607-5.177-11.607-11.607v-61.071C137.731,379.105,142.907,373.929,149.337,373.929z"/>
		<path id="path8856" sodipodi:nodetypes="sssssss" fill="#FF4B3D" d="M149.337,392.502c6.43,0,11.607,5.177,11.607,11.607v42.498
			c0,6.431-5.177,11.607-11.607,11.607s-11.607-5.177-11.607-11.607v-42.498C137.731,397.679,142.907,392.502,149.337,392.502z"/>
		<path id="path8858" sodipodi:nodetypes="sssssss" fill="#7738C7" d="M190.409,413.715c6.431,0,11.607,5.178,11.607,11.607v21.285
			c0,6.431-5.177,11.607-11.607,11.607c-6.43,0-11.607-5.177-11.607-11.607v-21.285
			C178.802,418.893,183.979,413.715,190.409,413.715z"/>
		<path id="path8860" fill="#171D8F" d="M36.706,150.916c-6.538,2.727-11.783,6.853-11.783,14.098v20.668
			c0,8.569,7.329,12.784,15.467,15.469l23.443,7.734c2.246,7.463,5.235,14.682,8.924,21.547l-11.105,22.047
			c-3.855,7.653-6.06,15.816,0,21.875l14.613,14.613c6.059,6.06,14.222,3.855,21.875,0l22.047-11.105
			c6.865,3.689,14.083,6.68,21.547,8.926l7.734,23.443c2.685,8.138,6.899,15.469,15.469,15.469h20.668
			c8.569,0,12.781-7.331,15.467-15.469l7.736-23.445c7.462-2.246,14.68-5.235,21.545-8.924l22.047,11.105
			c7.653,3.855,15.817,6.06,21.877,0l14.613-14.613c6.059-6.059,3.855-14.222,0-21.875l-11.105-22.047
			C141.542,272.118,72.101,217.439,36.706,150.916z"/>
	</g>
</g>
</svg>
