<?xml version="1.0" encoding="utf-8"?>
<!-- Generator: Adobe Illustrator 16.0.0, SVG Export Plug-In . SVG Version: 6.00 Build 0)  -->
<!DOCTYPE svg PUBLIC "-//W3C//DTD SVG 1.1//EN" "http://www.w3.org/Graphics/SVG/1.1/DTD/svg11.dtd">
<svg version="1.1"
	 id="svg8" xmlns:dc="http://purl.org/dc/elements/1.1/" xmlns:cc="http://creativecommons.org/ns#" xmlns:rdf="http://www.w3.org/1999/02/22-rdf-syntax-ns#" xmlns:svg="http://www.w3.org/2000/svg" xmlns:sodipodi="http://sodipodi.sourceforge.net/DTD/sodipodi-0.dtd" xmlns:inkscape="http://www.inkscape.org/namespaces/inkscape" sodipodi:docname="discussion, communication, meeting, stickers, sticker.svg" inkscape:version="1.0.2-2 (e86c870879, 2021-01-15)"
	 xmlns="http://www.w3.org/2000/svg" xmlns:xlink="http://www.w3.org/1999/xlink" x="0px" y="0px" width="512px" height="512px"
	 viewBox="0 0 512 512" enable-background="new 0 0 512 512" xml:space="preserve">
<g id="layer1" inkscape:label="Layer 1" inkscape:groupmode="layer">
	<g id="g8696" transform="translate(-0.02538317,0.51834473)">
		<g id="g15218" transform="translate(-0.11811756)">
			<g id="g15374">
				<path id="path3123-6" sodipodi:nodetypes="cssccssccc" fill="#FF4B3D" d="M298.568,384.006c0,0-64.849,6.546-96.082,22.608
					c-13.854,7.125-36.651,31.146-57.813,55.649c-7.114,8.237-3.699,24.218,15.016,24.218h308.026
					c20.821,0,21.072-15.109,17.844-22.459c-8.02-18.256-15.541-33.111-24.282-40.454c-29.746-24.986-78.709-38.081-78.709-38.081
					l-10.829,34.182C340.557,403.999,298.568,384.006,298.568,384.006L298.568,384.006z"/>
				<path id="path2894-0" fill="#171D8F" d="M445.978,240.267c0,0-17.252,69.036-55.387,66.365
					c-38.134-2.67,9.877-66.279,17.745-70.49C416.205,231.932,445.978,240.267,445.978,240.267L445.978,240.267z"/>
				<path id="path2892-6" fill="#171D8F" d="M250.496,81.882c0,0-22.304,23.286-31.478,64.749
					c-9.174,41.463-7.044,51.458-7.044,51.458s79.991-69.978,82.957-97.474C297.895,73.118,250.496,81.882,250.496,81.882
					L250.496,81.882z"/>
				<path id="path1904-7-96" sodipodi:nodetypes="cccccc" fill="#FEAC7C" d="M373.406,373.193c0,0-3.585-47.318,0-60.94
					l-71.7,20.792c0,0,3.59,30.113,0.723,41.585l26.532,63.134L373.406,373.193z"/>
				<path id="path1906-7-55" fill="#FF4B3D" d="M373.405,312.251l-71.697,20.793c0,0,2.437,20.529,1.67,34.143
					c5.808-0.916,12.124-2.598,19.001-5.293c36.914-14.466,47.142-32.811,49.96-42.647
					C372.587,316.46,372.933,314.05,373.405,312.251z"/>
				<path id="path1922-3-6" sodipodi:nodetypes="sssss" fill="#FEAC7C" d="M180.196,184.612
					c-3.137,15.363,6.775,30.359,22.137,33.496c15.363,3.136,30.359-6.775,33.496-22.138c3.137-15.362-6.774-30.359-22.137-33.496
					C198.329,159.338,183.332,169.249,180.196,184.612L180.196,184.612z"/>
				<path id="path1924-2-3" sodipodi:nodetypes="cccccccccccc" fill="#FF4B3D" d="M210.547,177.872
					c6.86,1.399,11.286,8.096,9.884,14.956c-1.087,5.314-5.436,9.348-10.816,10.033c1.136-1.393,1.943-3.024,2.359-4.773
					c-1.343,1.114-3.119,1.559-4.829,1.211c-3.122-0.637-5.135-3.684-4.498-6.805c0.637-3.121,3.684-5.135,6.805-4.497
					c0.132,0.027,0.263,0.06,0.392,0.097c-1.746-2.283-4.258-3.857-7.074-4.434c-1.89-0.386-3.845-0.307-5.697,0.229
					C199.813,179.207,205.231,176.787,210.547,177.872L210.547,177.872z"/>
				<path id="path1926-2-0" sodipodi:nodetypes="sssss" fill="#FEAC7C" d="M421.261,255.647
					c13.554-66.389-15.908-169.444-75.713-181.654c-59.805-12.209-119.493,57.821-133.047,124.209
					c-21.048,103.097,15.188,134.977,77.879,146.008C376.807,359.419,407.052,325.242,421.261,255.647z"/>
				
					<path id="path1928-4-86" sodipodi:nodetypes="csscc" inkscape:transform-center-y="-1.137669" inkscape:transform-center-x="-0.62054662" fill="#FF4B3D" d="
					M260.424,218.128c0,0-8.292,6.925-22.027,4.657s-9.101,23.385,11.651,21.46C270.8,242.32,272.229,213.49,260.424,218.128
					L260.424,218.128z"/>
				<path id="path2052-0-1" sodipodi:nodetypes="csscc" fill="#FFFFFF" d="M373.406,373.193c0,0,15.496,6.567,16.287,17.449
					c1.07,14.71-24.562,86-24.908,84.61c-0.348-1.39-35.824-37.489-35.824-37.489L373.406,373.193z"/>
				<path id="path2054-5-11" fill="#FFFFFF" d="M328.961,437.763l-28.417,32.134c0,0-19.656-50.614-19.656-66.339
					s21.541-28.929,21.541-28.929L328.961,437.763z"/>
				<path id="path1004-8-9-42" fill="#FECD91" d="M341.393,282.931c-4.419,9.486-15.692,13.594-25.179,9.174l0,0
					c-9.486-4.419-13.594-15.691-9.174-25.178l0,0c4.419-9.486,15.692-13.594,25.179-9.175
					C341.706,262.172,345.813,273.445,341.393,282.931L341.393,282.931z"/>
				<path id="path3715-3" fill="#FECD91" d="M210.877,232.315c-1.09-0.508-2.225-0.911-3.391-1.203
					c-1.302,13.822-1.265,26.013,0.003,36.758c5.538-1.39,10.154-5.201,12.565-10.377c4.419-9.485,0.312-20.757-9.174-25.177
					C210.879,232.316,210.878,232.316,210.877,232.315L210.877,232.315z"/>
				<path id="path2890-89" sodipodi:nodetypes="csssssssc" fill="#171D8F" d="M446.901,215.35c0,0-35.793,41.088-45.025,20.051
					s8.193-71.301,4.316-91.155c-3.876-19.854-20.284-50.141-43.469-27.143s-94.771,63.885-119.581,18.526
					c-24.81-45.358-10.871-58.299-5.748-55.913s78.453-91.445,149.882-39.791c71.428,51.653,67.462,60.354,81.364,92.065
					C489.763,180.17,446.901,215.35,446.901,215.35z"/>
				<path id="path1936-3-0" sodipodi:nodetypes="sssss" fill="#FEAC7C" d="M474.62,248.685
					c-3.137,15.363-18.134,25.273-33.496,22.138c-15.362-3.137-25.274-18.133-22.138-33.496s18.133-25.274,33.496-22.138
					C467.845,218.326,477.756,233.322,474.62,248.685z"/>
				<path id="path1938-5-46" sodipodi:nodetypes="cccccccccccc" fill="#FF4B3D" d="M449.339,230.588
					c-6.859-1.401-13.556,3.024-14.955,9.884c-1.084,5.315,1.336,10.73,6.018,13.47c-0.499-1.727-0.602-3.543-0.299-5.315
					c0.799,1.551,2.258,2.657,3.968,3.007c3.121,0.638,6.168-1.376,6.805-4.498c0.638-3.121-1.376-6.168-4.497-6.805
					c-0.133-0.026-0.266-0.049-0.399-0.065c2.502-1.416,5.431-1.88,8.246-1.306c1.89,0.386,3.658,1.225,5.152,2.444
					C458.691,236.022,454.656,231.673,449.339,230.588L449.339,230.588z"/>
				<path id="path2056-6-0-3" sodipodi:nodetypes="scccssccss" fill="#7738C7" d="M109.989,98.767
					c-46.867,0.001-84.859,37.995-84.858,84.861c0,46.868,37.994,84.861,84.861,84.861c21.452-0.001,42.108-8.127,57.811-22.743
					c7.816,6.667,22.605,16.078,32.052,18.609c8.538,2.288,10.063-7.434,2.821-9.374c-12.641-3.387-20.811-14.688-20.163-27.288
					c8.07-13.281,12.337-28.524,12.337-44.065c0-46.867-37.992-84.86-84.858-84.861H109.989z"/>
				<path id="rect15166" fill="#FFC517" d="M72.943,234.482c-10.9,0-19.674,8.775-19.674,19.676v64.934
					c0,10.9,8.773,19.676,19.674,19.676h27.65c-1.769,5.803-4.836,11.844-10.18,14.727c-11.954,6.449-16.042,3.934-17.615,7.236
					c-1.573,3.303,1.886,3.932,7.234,3.932c5.348,0,31.615-4.562,43.727-24.223c0.351-0.568,0.68-1.125,0.996-1.672h35.266
					c10.9,0,19.676-8.775,19.676-19.676v-64.934c0-10.9-8.775-19.676-19.676-19.676H72.943z"/>
				<path id="path2064-8-4-0" fill="#FFFFFF" d="M82.031,277.387c-5.025,0.001-9.098,4.075-9.097,9.1
					c0,5.024,4.073,9.097,9.097,9.098c5.025,0.001,9.099-4.072,9.1-9.098c0-5.024-4.073-9.099-9.098-9.1
					C82.033,277.387,82.032,277.387,82.031,277.387z M114.877,277.387c-5.025-0.001-9.099,4.073-9.1,9.098c0,0.001,0,0.001,0,0.002
					c0,5.025,4.075,9.099,9.1,9.098c5.024-0.001,9.097-4.073,9.098-9.098S119.903,277.388,114.877,277.387z M147.722,277.387
					c-5.025,0.001-9.098,4.075-9.098,9.1s4.073,9.097,9.098,9.098c5.025,0.001,9.099-4.072,9.1-9.098c0-5.024-4.073-9.099-9.098-9.1
					C147.723,277.387,147.722,277.387,147.722,277.387z"/>
				<path id="path10843-8-3" sodipodi:nodetypes="csssc" fill="#FFFFFF" d="M64.295,149.847c0,0,81.294-11.013,84.372-3.81
					s4.542,19.373-5.171,21.034c-9.714,1.661-75.491,4.022-78.626,2.328C61.734,167.704,54.846,150.578,64.295,149.847z"/>
				<path id="path10845-7-8" sodipodi:nodetypes="cccscc" fill="#FFC517" d="M71.27,183.492c0,0,95.875-1.434,97.978,4.081
					c2.103,5.514-1.271,7.326-9.825,6.964s-84.554-0.631-90.662-1.283C62.654,192.604,61.186,183.426,71.27,183.492L71.27,183.492z"
					/>
				<path id="path10847-4-6" sodipodi:nodetypes="csssc" fill="#FFC517" d="M71.111,207.694c0,0,46.785-2.003,48.888,3.512
					s-1.271,7.326-9.825,6.964c-8.554-0.362-35.464-0.061-41.572-0.713C62.428,216.796,65.39,206.93,71.111,207.694z"/>
			</g>
		</g>
	</g>
</g>
</svg>
