<?xml version="1.0" encoding="utf-8"?>
<!-- Generator: Adobe Illustrator 16.0.0, SVG Export Plug-In . SVG Version: 6.00 Build 0)  -->
<!DOCTYPE svg PUBLIC "-//W3C//DTD SVG 1.1//EN" "http://www.w3.org/Graphics/SVG/1.1/DTD/svg11.dtd">
<svg version="1.1"
	 id="svg8" xmlns:dc="http://purl.org/dc/elements/1.1/" xmlns:cc="http://creativecommons.org/ns#" xmlns:rdf="http://www.w3.org/1999/02/22-rdf-syntax-ns#" xmlns:svg="http://www.w3.org/2000/svg" xmlns:sodipodi="http://sodipodi.sourceforge.net/DTD/sodipodi-0.dtd" xmlns:inkscape="http://www.inkscape.org/namespaces/inkscape" sodipodi:docname="thinking, man, idea, money, stickers, sticker.svg" inkscape:version="1.0.2-2 (e86c870879, 2021-01-15)"
	 xmlns="http://www.w3.org/2000/svg" xmlns:xlink="http://www.w3.org/1999/xlink" x="0px" y="0px" width="512px" height="512px"
	 viewBox="0 0 512 512" enable-background="new 0 0 512 512" xml:space="preserve">
<g id="layer1" inkscape:label="Layer 1" inkscape:groupmode="layer">
	<g id="g7569">
		<path id="path7483" fill="#FFC517" d="M386.531,25c-55.383,0.062-100.246,44.975-100.246,100.357
			c0,55.274,44.696,100.143,99.971,100.355c4.202,5.951,9.062,17.488,4.07,36.115c-3.364,12.557-22.969,35.662,7.336,15.459
			c19.224-12.816,24.004-40.027,24.939-58.238c38.792-14.888,64.397-52.141,64.398-93.691C487,69.932,442.068,25,386.644,25
			c-0.001,0-0.001,0-0.001,0C386.605,25,386.568,25,386.531,25z"/>
		<path id="path7472" sodipodi:nodetypes="csscsscc" fill="#FF4B3D" d="M296.191,407.648c0,0,50.951-29.077,74.88,4.137
			C395,445,409.643,487,394.286,487H115.804c0,0-9.336,0-7.181-9.42c4.767-20.832,19.985-69.115,58.877-70.795
			c49.643-2.143,93.215,18.929,93.215,18.929L296.191,407.648z"/>
		<path id="path2894-2-8" fill="#171D8F" d="M351.32,297.217c0,0-5.267,54.482-34.581,56.791
			c-29.313,2.309-0.03-51.545,5.477-55.644S351.32,297.217,351.32,297.217L351.32,297.217z"/>
		<path id="path2892-1-18" fill="#171D8F" d="M184.583,198.978c0,0-14.317,20.252-16.577,52.839
			c-2.26,32.587,0.498,39.947,0.498,39.947s52.887-62.339,52.013-83.594C219.644,186.916,184.583,198.978,184.583,198.978
			L184.583,198.978z"/>
		<path id="path1904-7-9-8-80" sodipodi:nodetypes="cccccc" fill="#FEAC7C" d="M296.191,407.648c0,0-2.758-36.398,0-46.877
			l-55.152,15.994c0,0,2.761,23.164,0.555,31.987l20.409,48.563L296.191,407.648z"/>
		<path id="path1906-7-5-68-8" fill="#FF4B3D" d="M296.191,360.771l-55.15,15.994c0,0,1.874,15.791,1.285,26.263
			c4.467-0.704,9.326-1.998,14.616-4.071c28.395-11.127,36.262-25.238,38.43-32.805
			C295.562,364.009,295.826,362.155,296.191,360.771L296.191,360.771z"/>
		<path id="path1922-3-1-3-2" sodipodi:nodetypes="sssss" fill="#FEAC7C" d="M142.796,285.129
			c-0.638,12.044,8.609,22.324,20.653,22.961c12.044,0.639,22.324-8.608,22.962-20.652c0.637-12.044-8.609-22.324-20.653-22.962
			S143.433,273.085,142.796,285.129z"/>
		<path id="path1924-2-8-88-8" sodipodi:nodetypes="cccccccccccc" fill="#FF4B3D" d="M165.118,276.547
			c5.378,0.284,9.507,4.875,9.222,10.253c-0.222,4.167-3.071,7.729-7.086,8.864c0.706-1.189,1.134-2.522,1.251-3.9
			c-0.896,1-2.196,1.541-3.536,1.471c-2.447-0.129-4.326-2.217-4.196-4.664c0.129-2.447,2.218-4.326,4.665-4.195
			c0.104,0.005,0.207,0.015,0.31,0.028c-1.588-1.538-3.679-2.45-5.887-2.567c-1.481-0.078-2.96,0.204-4.308,0.822
			C157.104,278.785,160.95,276.328,165.118,276.547L165.118,276.547z"/>
		<path id="path1926-2-4-5-5" sodipodi:nodetypes="sssss" fill="#FEAC7C" d="M334.268,311.73
			c2.755-52.047-31.388-127.092-78.273-129.573c-46.885-2.481-84.321,57.586-87.076,109.634
			c-4.278,80.825,26.917,100.953,75.863,102.21C312.261,395.733,331.379,366.292,334.268,311.73z"/>
		
			<path id="path1928-4-5-8-0" sodipodi:nodetypes="cssc" inkscape:transform-center-y="-1.4666696" inkscape:transform-center-x="-0.32159372" fill="#FF4B3D" d="
			M216.655,293.468c0,0-14.533,14.239-25.24,14.077c-10.707-0.162-4.262,18.825,11.306,14.999S225.109,288.596,216.655,293.468
			L216.655,293.468z"/>
		<path id="path1004-8-9-4-5-6" fill="#FECD91" d="M276.615,341.577c-2.282,7.72-10.391,12.127-18.11,9.845l0,0
			c-7.719-2.282-12.127-10.391-9.845-18.109c2.282-7.721,10.391-12.128,18.109-9.846l0,0
			C274.49,325.749,278.897,333.857,276.615,341.577L276.615,341.577z"/>
		<path id="path3715-9-3-4" fill="#FECD91" d="M171.565,317.927c-0.887-0.263-1.797-0.439-2.717-0.529
			c0.583,10.663,1.999,19.934,4.186,27.963c4.055-1.687,7.132-5.112,8.378-9.323c2.282-7.72-2.126-15.827-9.845-18.109
			C171.567,317.928,171.566,317.928,171.565,317.927L171.565,317.927z"/>
		<path id="path7534" fill="#FFAC17" d="M287.934,107.252c-1.096,5.973-1.648,12.033-1.648,18.105
			c0,55.274,44.696,100.143,99.971,100.355c4.202,5.951,9.062,17.488,4.07,36.115c-3.364,12.557-22.969,35.662,7.336,15.459
			c19.224-12.816,24.004-40.027,24.939-58.238c4.452-1.709,8.777-3.733,12.941-6.057c-20.883,4.407-36.587,1.039-41.258-15.85
			C381.643,151.435,323.673,121.632,287.934,107.252z"/>
		<path id="path1936-3-5-4-4" sodipodi:nodetypes="sssss" fill="#FEAC7C" d="M374.067,300.361
			c-0.638,12.044-10.918,21.291-22.962,20.653s-21.291-10.918-20.653-22.962s10.918-21.291,22.962-20.653
			S374.705,288.317,374.067,300.361z"/>
		<path id="path1938-5-3-6-3" sodipodi:nodetypes="cccccccccccc" fill="#FF4B3D" d="M352.775,289.472
			c-5.378-0.286-9.969,3.844-10.252,9.222c-0.219,4.166,2.237,8.011,6.111,9.563c-0.577-1.257-0.861-2.628-0.833-4.01
			c0.785,1.089,2.021,1.764,3.361,1.836c2.446,0.13,4.535-1.749,4.664-4.196c0.13-2.446-1.749-4.535-4.195-4.665
			c-0.104-0.004-0.207-0.007-0.311-0.004c1.741-1.361,3.917-2.047,6.124-1.932c1.482,0.078,2.922,0.516,4.197,1.273
			C360.509,292.541,356.944,289.692,352.775,289.472L352.775,289.472z"/>
		<path id="path8019-1" fill="#171D8F" d="M343.398,290.383c-0.229-1.168-5.554-13.422-10.453,7.691
			c-4.899,21.114-10.089,1.014-13.986-19.968c-3.897-20.98-6.968-41.58-14.042-55.291c-7.075-13.71-16.914-22.322-22.923-25.035
			c-6.009-2.712-24.297,5.969-34.345,6.765c-10.047,0.796-16.518-8.977-23.431-6.913c-6.914,2.064-20.864,6.844-33.361,18.196
			c-12.497,11.353-6.274-16.852-6.274-16.852s5.733-27.784,24.14-41.841c18.407-14.057,50.094-22.225,98.732,0.034
			c48.64,22.259,60.497,33.277,65.269,59.146c4.771,25.87-7.854,56.98-13.9,65.067S343.398,290.383,343.398,290.383L343.398,290.383
			z"/>
		<path id="path7470" sodipodi:nodetypes="cssssscsc" fill="#FF4B3D" d="M183.929,368.929c0,0,5.178-7.5,18.214-0.357
			c13.036,7.144,18.928,13.214,24.464,10.714c5.536-2.5,13.036-9.106,18.929-8.035c5.893,1.071,6.071,13.393,4.643,22.679
			c-1.429,9.286,6.429,36.429,12.143,40.357c5.714,3.928,5.333,10.044,5.333,10.044s-38.547-5.401-49.083-20.223
			C208.036,409.285,183.929,368.929,183.929,368.929z"/>
		<path id="path7478" fill="#FFFFFF" d="M206.093,407.648l1.013-21.398c0,0-15.179,12.321-16.786,21.071
			c-1.607,8.75,7.5,51.429,11.25,57.679s34.821-17.5,34.821-17.5L206.093,407.648z"/>
		<path id="path7468" sodipodi:nodetypes="csccsssssssscc" fill="#FEAC7C" d="M267.654,444.33c0,0-29.91-21.703-21.18-54.283
			c6.54-24.408-1.119-20.309-8.213-16.438c-7.094,3.871-9.507,15.133-9.507,15.133s-21.468-15.615-29.55-17.246
			c-8.082-1.631-13.948-4.473-16.546,1.837c-2.599,6.309,1.11,8.888-2.981,11.407c-4.091,2.521-6.146,8.245-3.142,13.223
			c3.004,4.979-3.526,5.664-0.643,13.584c2.883,7.921-5.36,8.104,2.482,15.62c7.841,7.517,15.32,17.531,26.527,21.198
			c11.207,3.666,21.581,9.295,23.863,14.921c1.925,4.746,3.16,8.448,5.891,14.298C236.187,476.173,267.654,444.33,267.654,444.33z"
			/>
		<path id="path7474" fill="#FFFFFF" d="M234.655,477.584l32.999-33.254c0,0,10.561,0.67,12.703,9.241S261.607,487,252.5,487
			C243.393,487,236.481,484.398,234.655,477.584L234.655,477.584z"/>
		<path id="path7476" fill="#FFFFFF" d="M296.191,407.648l-1.013-21.398c0,0,15.179,12.321,16.785,21.071
			c1.607,8.75-7.5,51.429-11.25,57.679c-3.749,6.25-34.821-17.5-34.821-17.5L296.191,407.648z"/>
		<path id="path7480" fill="#7738C7" d="M125.244,25C69.862,25.063,25,69.976,25,125.357c0,35.309,18.556,68.019,48.861,86.137
			c0.008,17.191,2.987,51.029,25.133,65.793c30.305,20.203,10.703-2.902,7.338-15.459c-5.291-19.747,0.484-31.526,4.814-37.125
			c4.707,0.673,9.456,1.012,14.211,1.012c55.426,0,100.357-44.931,100.357-100.357v0C225.715,69.932,180.784,25,125.358,25h0
			C125.32,25,125.282,25,125.244,25z"/>
		<path id="path10344" fill="#FFFFFF" d="M377.078,60.846c-3.918-0.001-7.096,3.173-7.098,7.091c0,0.001,0,0.002,0,0.003v6.822
			c-2.601,1.127-5.171,2.716-7.61,4.802c-6.046,5.17-9.515,11.14-10.363,17.076c-0.848,5.936,0.861,11.296,3.146,15.426
			c4.313,7.795,10.786,12.326,11.521,12.827c0.208,0.161,0.425,0.311,0.649,0.448c0,0,11.079,6.809,18.736,14.872
			c3.828,4.032,6.472,8.357,6.979,10.964s0.664,3.653-3.717,6.628c-9.992,6.783-14.845,4.746-19.261,1.8
			c-4.416-2.945-7.031-7.636-7.031-7.636c-1.813-3.473-6.099-4.818-9.571-3.004c-0.004,0.002-0.008,0.004-0.011,0.006
			c-3.467,1.815-4.809,6.095-2.999,9.564c0,0,3.802,7.581,11.738,12.875c2.207,1.472,4.848,2.684,7.793,3.494v6.573
			c-0.002,3.918,3.173,7.095,7.091,7.097c0.002,0,0.004,0,0.007,0c3.918,0,7.094-3.177,7.093-7.094c0-0.001,0-0.002,0-0.003v-6.206
			c4.224-0.89,8.656-2.689,13.124-5.723c7.686-5.218,11.095-13.824,9.682-21.079s-5.871-13.012-10.639-18.032
			c-9.106-9.59-20.301-16.398-21.313-17.006c-0.079-0.06-4.953-3.721-7.453-8.241c-1.261-2.278-1.829-4.415-1.525-6.543
			c0.305-2.129,1.429-4.782,5.547-8.303c3.634-3.107,5.995-3.55,8.123-3.405c2.129,0.145,4.455,1.218,6.734,3.021
			c4.559,3.604,7.859,9.362,7.859,9.362c1.86,3.448,6.164,4.735,9.612,2.874l0,0c3.447-1.861,4.733-6.165,2.872-9.612
			c-0.001-0.001-0.001-0.002-0.002-0.003c0,0-4.035-7.818-11.536-13.75c-2.986-2.361-6.703-4.526-11.086-5.521V67.94
			C384.171,64.022,380.995,60.847,377.078,60.846L377.078,60.846z"/>
		<path id="path7516" fill="#FFFFFF" d="M118.998,56.236c-5.176,0.093-26.718,1.949-40.076,25.699
			c-15.267,27.144,0,60.103,13.74,70.281c12.343,9.144,9.496,19.458,12.846,25.326c-0.606-17.137,0.667-35.572,0.711-50.396
			c0.007-2.466-0.455-3.507-0.533-5.744c-6.825-1.858-11.75-5.192-14.342-9.42c-2.199-3.587-2.874-7.561-2.037-11.094
			s3.442-6.742,7.211-7.752c3.413-0.915,6.975-0.488,9.604,1.389s4.165,4.708,5.213,7.906c1.182,3.607,1.743,8.015,2.066,12.822
			c2.348,0.178,4.967,0.178,7.951-0.082c0.016-0.47-0.064-1.104-0.045-1.564c0.198-4.625,0.603-8.751,1.357-12.209
			s1.641-6.381,4.156-8.549c1.844-1.589,4.061-2.367,6.246-2.473s4.338,0.465,6.053,1.572c3.428,2.214,5.665,5.968,6.311,10.254
			s-0.543,9.26-4.287,13.117c-2.686,2.768-6.98,4.61-12.086,5.92c-0.008,7.377,0.06,15.056,0.65,23.268
			c1.017,14.147,2.528,27.25,3.49,35.008c0.058-0.053,0.122-0.103,0.178-0.156c5.598-5.332,0.508-16.964,14.248-27.143
			s29.007-43.138,13.74-70.281s-41.219-25.691-41.219-25.691s-0.407-0.02-1.146-0.006V56.236z M133.479,97.656
			c-0.475,0.009-0.981,0.279-1.727,0.922c-0.074,0.064-1.094,1.673-1.697,4.436c-0.585,2.683-0.967,6.397-1.16,10.602
			c3.086-1.005,5.519-2.215,6.822-3.559c2.127-2.192,2.581-4.493,2.244-6.725s-1.708-4.236-2.945-5.035
			C134.397,97.897,133.953,97.647,133.479,97.656z M100.148,100.156c-0.428,0.007-0.96,0.092-1.666,0.281
			c-0.917,0.246-1.503,0.837-1.824,2.193s-0.12,3.36,1.129,5.396c1.197,1.952,3.557,3.973,7.168,5.432
			c-0.325-2.73-0.215-6.875-0.805-8.674c-0.76-2.318-1.704-3.6-2.42-4.111C101.283,100.354,100.861,100.146,100.148,100.156z
			 M121.557,122.695c-2.855,0.226-5.452,0.193-7.92,0.035c0.022,1.525,0.146,2.837,0.141,4.438
			c-0.05,16.852-1.529,37.603-0.451,55.365c3.933,1,8.606,1.087,12.654,0.24c-0.927-7.302-2.685-22.056-3.811-37.727
			C121.61,137.262,121.598,129.955,121.557,122.695z"/>
		<path id="path7539" fill="#171D8F" d="M31.986,162.148c8.126,20.622,22.851,37.973,41.875,49.346
			c0.008,17.191,2.987,51.029,25.133,65.793c30.305,20.203,10.703-2.902,7.338-15.459c-5.291-19.747,0.484-31.526,4.814-37.125
			c4.707,0.673,9.456,1.012,14.211,1.012c22.584,0,44.508-7.618,62.227-21.621c-21.673,3.271-47.344,4.333-75.084-0.166
			C70.399,197.101,45.8,178.291,31.986,162.148z"/>
	</g>
</g>
</svg>
