<?xml version="1.0" encoding="utf-8"?>
<!-- Generator: Adobe Illustrator 16.0.0, SVG Export Plug-In . SVG Version: 6.00 Build 0)  -->
<!DOCTYPE svg PUBLIC "-//W3C//DTD SVG 1.1//EN" "http://www.w3.org/Graphics/SVG/1.1/DTD/svg11.dtd">
<svg version="1.1"
	 id="svg8" xmlns:dc="http://purl.org/dc/elements/1.1/" xmlns:cc="http://creativecommons.org/ns#" xmlns:rdf="http://www.w3.org/1999/02/22-rdf-syntax-ns#" xmlns:svg="http://www.w3.org/2000/svg" xmlns:sodipodi="http://sodipodi.sourceforge.net/DTD/sodipodi-0.dtd" xmlns:inkscape="http://www.inkscape.org/namespaces/inkscape" sodipodi:docname="start up, rocket, rockets, business, stickers, sticker.svg" inkscape:version="1.0.2-2 (e86c870879, 2021-01-15)"
	 xmlns="http://www.w3.org/2000/svg" xmlns:xlink="http://www.w3.org/1999/xlink" x="0px" y="0px" width="512px" height="512px"
	 viewBox="0 0 512 512" enable-background="new 0 0 512 512" xml:space="preserve">
<g id="layer1" inkscape:label="Layer 1" inkscape:groupmode="layer">
	<g id="g4582" transform="matrix(1.0196995,0,0,1.0196995,-11.215938,0.0170416)">
		<g id="g7740" transform="matrix(0.98492367,0,0,0.98492367,5.218242,-2.9936767)">
			<g id="g14629">
				<path id="path14371" fill="#FF4B3D" d="M235.446,223.35c0,0-85.169-8.979-134.202,23.588
					c-49.033,32.566-49.692,55.493-48.509,60.381c1.183,4.887,5.538,13.043,47.443,10.453c41.906-2.589,44.078,20.066,56.986,13.111
					C170.072,323.93,270.611,224.979,235.446,223.35z"/>
				<path id="path14591" fill="#CF1531" d="M210.181,222.219c-20.173-0.092-49.385,1.583-76.135,9.78
					c-7.691,6.743-30.101,28.768-27.595,54.66c1.023,10.575-4.787,21.55-12.903,31.444c2.104-0.08,4.301-0.187,6.631-0.331
					c41.906-2.59,44.078,20.066,56.986,13.111c4.247-2.288,17.989-14.555,33.253-30.017c15.079-30.915,22.955-66.6,22.543-78.619
					C212.045,222.236,211.137,222.223,210.181,222.219z"/>
				<path id="path14363" sodipodi:nodetypes="zsssssz" fill="#FFC517" d="M485.429,33.258
					c-22.823-22.823-187.495,27.159-316.652,156.316c-26.51,26.51-43.684,50.842-53.387,73.122
					c-3.465,7.959,10.992,62.206,44.789,95.207c35.531,34.698,90.819,47.907,100.989,43.017
					c20.858-10.027,43.473-26.542,67.942-51.012C458.268,220.751,508.252,56.081,485.429,33.258z"/>
				<path id="path14584" fill="#FFAC17" d="M417.301,239.807c-29.639,23.009-60.094,29.208-60.094,29.208
					s-4.978,39.828-67.565,81.789c-62.586,41.961-90.324-22.047-90.324-24.892c0,0-0.01,31.441-2.454,58.098
					c28.708,15.022,57.278,20.289,64.306,16.911c20.859-10.027,43.472-26.541,67.942-51.012
					C364.369,314.651,393.713,276.749,417.301,239.807z"/>
				<path id="path14369" fill="#FF4B3D" d="M357.207,269.014c0,0,17.069,83.923-10.669,135.841
					c-27.736,51.918-50.495,54.763-55.474,54.052c-4.978-0.712-13.513-4.268-14.935-46.229
					c-1.423-41.962-24.181-41.962-18.492-55.474C263.327,343.691,352.229,234.165,357.207,269.014z"/>
				<path id="path14375" fill="#FFAC17" d="M116.837,259.511c-0.493,1.066-0.987,2.129-1.447,3.185
					c-3.465,7.958,10.992,62.205,44.789,95.207c35.532,34.698,90.82,47.906,100.991,43.017c1.003-0.482,2.011-0.994,3.022-1.505
					c-5.533-38.995-39.575-81.363-76.252-109.775C160.644,268.495,134.82,261.492,116.837,259.511z"/>
				<path id="path14382" sodipodi:nodetypes="ccccc" fill="#171D8F" d="M108.834,343.631l27.682-47.22
					c31.773-4.596,91.945,58.981,97.588,91.328l-45.3,31.818C188.803,419.557,112.727,366.909,108.834,343.631L108.834,343.631z"/>
				<path id="path14380" fill="#7738C7" d="M108.834,343.631c-0.268,0.578-0.536,1.155-0.785,1.729
					c-1.881,4.319,5.965,33.758,24.307,51.669c19.283,18.831,49.288,25.999,54.808,23.345c0.544-0.262,1.091-0.54,1.64-0.817
					c-3.003-21.163-21.477-44.156-41.382-59.575C132.608,348.507,118.593,344.706,108.834,343.631L108.834,343.631z"/>
				<path id="path14384" fill="#FEAC7C" d="M144.2,377.119c0,0,8.89,0.711,8.534,11.023c-0.356,10.313-12.446,27.027-6.756,41.25
					c5.69,14.225,13.157,24.892,2.489,36.984c-10.668,12.09-21.692,5.689-21.692,5.689s-3.201,15.86-27.471,15.86
					s-29.782-16.038-29.782-16.038s-17.069,2.133-24.715-12.446c-7.645-14.579,5.156-27.737,5.156-27.737
					s-19.203-4.089-19.203-23.292c0-19.202,30.937-25.248,30.937-25.248s-3.201-17.957,18.669-20.625
					c21.87-2.667,36.805,15.29,36.805,15.29S128.02,363.072,144.2,377.119L144.2,377.119z"/>
				<path id="path14560" fill="#FFAC17" d="M319.68,136.291c0,0-64.372,53.81-62.863,61.354
					c1.509,7.544,38.723,32.185,37.718,47.273c-1.005,15.087-73.927,74.933-78.956,77.446c-5.029,2.514-4.023-4.776-2.011-5.783
					c2.011-1.006,66.131-55.319,71.914-69.149c5.784-13.83-45.261-37.717-33.694-54.816c11.567-17.098,64.623-63.366,64.623-63.366
					L319.68,136.291z"/>
				<path id="path14558" sodipodi:nodetypes="cssssscsc" fill="#FFFFFF" d="M292.032,93.203c0,0-1.646-7.704-8.059-3.807
					c-6.412,3.897-9.303,27.282,8.927,42.62c18.23,15.339,42.872,18.23,77.069,13.076c34.198-5.155,52.679-30.677,55.822-50.668
					c4.214-26.802-14.931-44.594-30.899-50.755c-15.968-6.16-20.483,2.818-20.251,7.551c0.231,4.732-21.393,29.752-37.612,34.529
					S292.032,93.203,292.032,93.203L292.032,93.203z"/>
				<path id="path14546" fill="#7738C7" d="M374.641,51.22c-25.477,10.434-53.604,24.408-82.609,41.982
					c-5.664,15.448-0.61,31.081,24.63,39.065c49.284,15.59,110.137-19.11,93.541-57.33C403.259,58.946,389.18,52.832,374.641,51.22z
					"/>
				<path id="path14553" sodipodi:nodetypes="ccsccsscc" fill="#171D8F" d="M374.641,51.22
					c-25.477,10.434-53.604,24.408-82.609,41.982c-5.664,15.448-0.61,31.081,24.63,39.065c7.443,2.355,15.149,3.555,22.813,3.777
					c-0.565-0.165-1.13-0.33-1.692-0.508c-19.88-6.289-27.237-17.323-26.697-29.274c0.145-3.222,2.088-9.962,11.026-15.123
					c24.537-14.167,48.159-25.992,70.007-35.139C386.695,53.368,380.712,51.893,374.641,51.22z"/>
				<path id="path14562" fill="#FFAC17" d="M317.379,166.956c0,3.535-2.866,6.401-6.401,6.401c-3.535,0-6.401-2.866-6.401-6.401
					c0-3.535,2.866-6.401,6.401-6.401C314.513,160.555,317.379,163.421,317.379,166.956z"/>
				<path id="path14564" fill="#FFAC17" d="M292.843,193.449c0,3.633-2.946,6.578-6.579,6.578c-3.634,0-6.579-2.945-6.579-6.578
					s2.945-6.579,6.579-6.579C289.897,186.87,292.843,189.815,292.843,193.449z"/>
				<path id="path14568" fill="#FFAC17" d="M261.549,256.568c0,3.535-2.865,6.401-6.401,6.401c-3.535,0-6.401-2.866-6.401-6.401
					c0-3.535,2.866-6.401,6.401-6.401C258.684,250.168,261.549,253.033,261.549,256.568z"/>
				<path id="path14570" fill="#FFAC17" d="M237.012,283.061c0,3.633-2.945,6.579-6.578,6.579s-6.578-2.946-6.578-6.579
					s2.945-6.579,6.578-6.579S237.012,279.428,237.012,283.061z"/>
				<path id="path14572" fill="#FF4B3D" d="M69.523,471.887c0,0-4.814-3.179-6.071-14.368c-1.257-11.19,11.944-15.213,11.944-15.213
					s-5.154-4.904-2.64-9.682c2.515-4.777,10.183-2.891,10.183-2.891s-4.023-5.406-10.183-0.629
					c-6.161,4.777-2.892,11.19-2.892,11.19s-9.052-0.126-12.573,9.681C53.771,459.782,60.004,470.288,69.523,471.887L69.523,471.887
					z"/>
				<path id="path14574" fill="#FF4B3D" d="M61.699,383.163c0,0-7.3,7.721-3.78,13.504c3.52,5.784,9.555,6.665,9.555,6.665
					s-8.424,3.017-8.424,7.794c0,4.778-0.125,5.155-0.125,5.155s-3.52-4.024-2.263-7.67c1.257-3.646,3.772-4.525,3.772-4.525
					S43.855,394.427,61.699,383.163L61.699,383.163z"/>
				<path id="path14578" fill="#FF4B3D" d="M131.131,385.209c0,0-14.136,11.112-33.605,12.001
					c-19.469,0.889-21.781-0.978-14.758-1.067c7.023-0.089,20.359-0.534,30.405-4.89c10.045-4.356,19.292-9.601,20.358-10.668
					C134.598,379.519,135.399,381.919,131.131,385.209z"/>
				<path id="path14580" fill="#FF4B3D" d="M131.576,392.231c0,0-28.448,27.205-35.916,32.36
					c-7.468,5.156,4.267-0.889,17.425-10.134C126.242,405.211,141.177,384.053,131.576,392.231z"/>
				<path id="path14582" fill="#FF4B3D" d="M126.775,472.065c0,0-7.379,6.757-17.514,4.623c-10.135-2.133-5.69-20.536-5.69-20.536
					s-9.068-4.711-7.023-9.867c2.045-5.156,7.112-4.356,7.112-4.356s-6.49-4.712-10.224,5.957
					c-3.734,10.668,6.401,13.157,6.401,13.157s-7.379,14.899,6.045,20.892C119.307,487.925,126.775,472.065,126.775,472.065
					L126.775,472.065z"/>
				<path id="path14601" fill="#FF4B3D" d="M465.018,27.917c-10.759,0.015-24.869,2.196-41.432,6.571
					c21.172,9.803,53.2,32.557,54.561,80.83c13.961-42.114,16.264-73.076,7.281-82.059
					C481.861,29.693,474.834,27.904,465.018,27.917z"/>
			</g>
		</g>
	</g>
</g>
</svg>
